<?xml version="1.0" encoding="UTF-8" standalone="no"?>
<svg
   xmlns:dc="http://purl.org/dc/elements/1.1/"
   xmlns:cc="http://creativecommons.org/ns#"
   xmlns:rdf="http://www.w3.org/1999/02/22-rdf-syntax-ns#"
   xmlns:svg="http://www.w3.org/2000/svg"
   xmlns="http://www.w3.org/2000/svg"
   id="svg843"
   version="1.1"
   viewBox="0 0 98.526703 59.17489"
   height="223.65312"
   width="372.3844">
  <defs
     id="defs837" />
  <metadata
     id="metadata840">
    <rdf:RDF>
      <cc:Work
         rdf:about="">
        <dc:format>image/svg+xml</dc:format>
        <dc:type
           rdf:resource="http://purl.org/dc/dcmitype/StillImage" />
        <dc:title></dc:title>
      </cc:Work>
    </rdf:RDF>
  </metadata>
  <g
     transform="translate(-36.915262,6.9981581)"
     id="layer1">
    <path
       id="path817"
       d="M 109.7432,43.902553 89.200675,35.672847 89.044373,33.688472 c -0.08597,-1.091406 -0.235027,-3.687207 -0.331243,-5.768448 l -0.174942,-3.784074 0.925189,0.441193 0.925187,0.44119 0.318037,4.268925 c 0.216221,2.902268 0.429612,4.353626 0.666549,4.533506 0.191683,0.145521 8.33114,3.465959 18.08768,7.37875 11.23885,4.507259 17.90593,7.050175 18.19425,6.939534 0.41428,-0.158972 0.43817,-0.530013 0.26645,-4.137604 l -0.18864,-3.962972 h 0.68111 0.68111 v 4.119444 4.119443 l 0.59531,-0.08455 c 0.58362,-0.08289 0.59674,-0.163081 0.66816,-4.084399 l 0.0729,-3.999852 1.12974,-0.154847 c 0.62136,-0.08517 1.33271,-0.232738 1.5808,-0.327935 0.40148,-0.154064 0.45095,0.0554 0.45009,1.905741 -5.3e-4,1.143357 -0.0795,3.794871 -0.17541,5.89226 -0.20001,4.372266 -0.39927,4.814541 -2.13873,4.747003 -0.61559,-0.02389 -8.78933,-3.162199 -21.53471,-8.268229 z m -68.617022,6.63494 c -0.502456,-0.378507 -0.494902,-0.389252 0.182639,-0.259731 0.52121,0.09963 0.88459,-0.04271 1.384031,-0.542147 0.607181,-0.607181 0.675422,-0.87698 0.659525,-2.607513 -0.0098,-1.061641 -0.284669,-5.383067 -0.610925,-9.603172 -0.326256,-4.220104 -0.575806,-7.703121 -0.554557,-7.740036 0.02125,-0.03692 3.123901,-0.603729 6.894779,-1.25958 14.268699,-2.481694 24.40852,-4.622605 30.23877,-6.384584 1.655339,-0.500266 3.037986,-0.874882 3.072543,-0.83248 0.10296,0.126328 0.671311,15.229173 0.667832,17.746337 -0.0024,1.629961 -0.10192,2.35144 -0.333938,2.417329 -0.181901,0.05165 -8.665105,2.149126 -18.851563,4.661048 -18.989809,4.682776 -21.686646,5.204918 -22.749136,4.404529 z m -0.448207,-2.04244 C 39.986961,48.09187 39.723956,46.810385 39.539707,42.948889 39.331774,38.591021 38.324645,25.340553 37.513835,16.295165 L 36.915262,9.617484 37.695287,8.800038 C 38.921518,7.514983 43.882838,5.35882 54.08573,1.6768437 c 8.565015,-3.0909075 22.320425,-7.6106735 24.606251,-8.0851482 3.174415,-0.658921 8.692001,-0.7864528 12.016626,-0.2777463 3.12035,0.4774485 8.888635,2.3407609 16.430613,5.3075364 9.66055,3.8001549 24.94556,10.5009054 25.89259,11.3509744 1.35815,1.219099 1.39297,1.584989 0.96313,10.121178 -0.43497,8.638241 -0.51238,8.987806 -2.20968,9.979086 -0.47465,0.277209 -0.91033,0.456689 -0.96817,0.398843 -0.0579,-0.05784 0.12795,-3.890502 0.41287,-8.517019 0.47606,-7.730112 0.48393,-8.483722 0.0972,-9.298724 -0.51224,-1.079465 -0.22514,-0.942596 -10.16954,-4.848055 C 116.71922,6.064683 108.86109,2.9481825 103.69511,0.88220996 98.529116,-1.1837652 93.409429,-3.1122628 92.318022,-3.4033415 c -2.868072,-0.764921 -8.840933,-0.9448086 -12.170833,-0.366559 -3.180834,0.5523679 -17.966934,5.418574 -18.36055,6.0425832 -0.204033,0.3234584 -0.190005,0.5356516 0.05137,0.7770253 0.266348,0.266349 1.783446,-0.1484176 7.666973,-2.09611084 4.034205,-1.3354923 8.064804,-2.61229736 8.956892,-2.83734926 3.720695,-0.9386385 9.986703,-0.9507405 13.548479,-0.026167 0.922189,0.2393844 7.470627,2.73416176 14.552087,5.5439521 7.08145,2.80979 15.22386,6.034354 18.09423,7.1657 3.81749,1.504648 5.26233,2.193972 5.38077,2.567141 0.18806,0.592547 -0.68371,16.665612 -0.91776,16.920692 -0.0863,0.09403 -0.90666,0.04693 -1.82307,-0.104667 -1.60641,-0.265745 -1.66103,-0.300368 -1.5219,-0.964721 0.0794,-0.378994 0.61653,-3.589274 1.19369,-7.133952 0.92559,-5.684561 1.13233,-6.553619 1.75251,-7.366713 0.59116,-0.77506 0.64534,-0.976032 0.34022,-1.262157 -0.47709,-0.44739 -37.766868,-13.74907344 -39.653524,-14.14485834 -4.058277,-0.85134446 -9.608857,-0.49143706 -13.4243,0.87045 -0.984083,0.3512609 -3.337054,1.19577124 -5.228825,1.87669234 -4.381418,1.577038 -12.415288,3.886218 -22.0788,6.346124 -4.176745,1.063215 -7.848876,2.069481 -8.160293,2.236144 -1.229121,0.657807 -1.224525,1.137074 0.191533,19.973095 0.731625,9.731878 1.265928,17.798362 1.187341,17.925521 -0.184707,0.298863 -0.658595,0.281924 -1.216291,-0.04347 z M 58.571978,4.588742 C 59.279175,4.319865 59.506217,3.394331 58.914376,3.192954 58.4416,3.03209 56.799246,3.507319 56.357416,3.932832 56.043789,4.23488 56.040612,4.362259 56.337786,4.720327 56.694894,5.150614 57.167326,5.12279 58.57198,4.588742 Z M 109.4543,39.580539 C 98.399526,35.142437 92.550469,32.665752 92.472142,32.389725 c -0.06571,-0.231574 -0.201387,-1.824977 -0.3015,-3.540895 l -0.182023,-3.119853 1.421471,0.64026 c 7.39478,3.33075 11.80148,5.251601 15.01633,6.545522 2.09291,0.842357 3.90109,1.628934 4.01819,1.747949 0.11711,0.119015 0.2502,0.749779 0.29577,1.401696 l 0.0828,1.18531 2.51354,0.589745 c 1.38245,0.324364 4.38732,0.913268 6.67748,1.30868 l 4.16394,0.718928 0.14941,0.813308 c 0.0822,0.447318 0.1134,1.906045 0.0694,3.24162 l -0.08,2.428311 z M 84.642598,40.000634 C 84.636398,37.160284 83.429864,9.564965 83.191535,6.813171 L 83.052306,5.205578 84.417485,4.890457 c 0.750848,-0.173315 1.41638,-0.263922 1.478957,-0.201343 0.145997,0.145995 1.661634,28.538346 1.710468,32.042066 0.04662,3.344855 -0.07793,3.732909 -1.269823,3.956511 -0.514694,0.09656 -1.105948,0.240847 -1.313894,0.320643 -0.29187,0.112001 -0.378659,-0.117795 -0.380595,-1.0077 z m 42.995572,-1.555607 c -2.37586,-0.239313 -8.78677,-1.332733 -11.70609,-1.996543 l -1.91822,-0.436176 v -3.270282 c 0,-2.496153 0.0783,-3.245281 0.33072,-3.164679 0.18191,0.05808 3.84842,0.660821 8.14781,1.339427 6.92395,1.092859 7.95065,1.197856 8.98624,0.919004 1.42462,-0.383612 3.1047,-1.97435 3.34284,-3.165089 0.3491,-1.74548 0.61559,-0.08858 0.61958,3.852296 0.005,4.445847 0.0503,4.322411 -1.98032,5.336553 -1.34918,0.673807 -3.149,0.854787 -5.82256,0.585489 z m -18.51911,-6.84154 C 106.31529,30.474499 98.238374,26.927778 91.837317,24.014758 l -2.200497,-1.001414 0.172238,-9.809832 c 0.09473,-5.395407 0.288639,-10.191097 0.430908,-10.6570861 0.142267,-0.4659894 0.473139,-0.915326 0.73527,-0.9985216 0.276013,-0.087603 7.924789,2.5155077 18.173754,6.1850827 15.32238,5.486074 17.68313,6.401162 17.59261,6.819355 -0.0575,0.265652 -0.65665,3.757223 -1.33146,7.759047 -1.13304,6.719371 -1.26674,7.271631 -1.74753,7.218405 -0.28635,-0.0317 -2.82592,-0.429128 -5.64349,-0.883177 -2.81758,-0.454046 -5.22354,-0.724868 -5.34658,-0.601829 -0.12304,0.123042 -0.25853,1.261737 -0.30109,2.530438 l -0.0774,2.306727 z m 5.68855,-19.478557 c 0.47049,-0.566917 -0.013,-1.05142 -1.45108,-1.454052 -2.22658,-0.623403 -2.79584,0.54973 -0.66325,1.366848 1.4874,0.569907 1.70623,0.578935 2.11433,0.0872 z m -5.15938,-1.980073 c 0,-0.610428 -0.5224,-0.846563 -8.59896,-3.886888 -4.729425,-1.780336 -8.866847,-3.242418 -9.194268,-3.24907 -0.661763,-0.013441 -0.847961,0.851493 -0.264584,1.229061 0.680403,0.440367 17.280212,6.646013 17.660942,6.602336 0.2327,-0.0267 0.39687,-0.314367 0.39687,-0.695439 z M 41.930327,26.346285 c -0.08744,-0.982266 -0.22189,-2.470547 -0.298781,-3.307292 -0.07689,-0.836745 -0.08794,-1.521354 -0.02456,-1.521354 0.06338,0 3.789998,-0.651076 8.281368,-1.446837 C 64.033835,17.56457 74.762856,15.249569 79.7186,13.634328 l 2.213713,-0.721522 0.165772,1.961087 c 0.284858,3.36986 0.21536,4.716018 -0.252743,4.895646 -0.783371,0.300607 -0.904402,0.161155 -0.904402,-1.042051 0,-1.783038 -1.002599,-2.688489 -2.778125,-2.508941 -0.291042,0.02943 -7.911042,1.706129 -16.933334,3.725996 -18.635124,4.171939 -17.594792,3.790312 -17.594792,6.454333 0,1.04362 -0.10922,1.45406 -0.418514,1.572747 -0.973517,0.373573 -1.124948,0.182163 -1.285848,-1.625338 z m -0.523236,-7.011459 c -0.172286,-0.847553 -0.397695,-4.696354 -0.275047,-4.696354 0.05631,0 9.086231,-2.024063 20.06649,-4.497917 10.98026,-2.473854 20.078971,-4.497917 20.219359,-4.497917 0.140388,0 0.311134,1.220391 0.379439,2.711979 0.102158,2.230927 0.05172,2.770646 -0.284382,3.042709 -0.725932,0.587631 -1.029026,0.360296 -1.168416,-0.876372 -0.170201,-1.510011 -1.022795,-2.495968 -2.161694,-2.499817 -0.874535,-0.003 -32.620763,6.994625 -33.801984,7.450714 -0.921792,0.35592 -1.510015,1.656879 -1.341686,2.967376 0.0895,0.696817 0.01563,1.095939 -0.231877,1.252721 -0.65549,0.415218 -1.275341,0.257127 -1.400202,-0.357122 z m 46.71968,-2.976563 C 87.975871,12.399557 87.504707,4.083861 87.403445,3.592117 87.320498,3.189308 87.089983,2.9967865 86.690586,2.9967494 86.365937,2.9967203 76.001933,5.270915 63.659467,8.050519 c -12.34247,2.779604 -22.503418,4.991258 -22.57989,4.914786 -0.373303,-0.373303 0.268345,-1.214673 1.04575,-1.371254 1.6552,-0.333382 15.206459,-3.889787 19.765611,-5.187307 5.938754,-1.690147 8.106988,-2.393362 12.170834,-3.9473263 4.241777,-1.62200434 7.729168,-2.23408614 11.614034,-2.03841354 1.543166,0.077727 3.009641,0.2238481 3.258831,0.3247178 0.4046,0.1637745 0.411998,0.246089 0.06914,0.76935024 -0.298328,0.4553082 -0.434403,2.2933448 -0.610298,8.2437388 -0.124503,4.211781 -0.244523,7.181536 -0.266711,6.599452 z"
       style="fill:#000000;stroke-width:0.26458332" />
  </g>
</svg>
