<?xml version="1.0" encoding="UTF-8" standalone="no"?>
<svg
   xmlns:dc="http://purl.org/dc/elements/1.1/"
   xmlns:cc="http://creativecommons.org/ns#"
   xmlns:rdf="http://www.w3.org/1999/02/22-rdf-syntax-ns#"
   xmlns:svg="http://www.w3.org/2000/svg"
   xmlns="http://www.w3.org/2000/svg"
   id="svg834"
   version="1.1"
   viewBox="0 0 97.808647 53.363373"
   height="201.68834"
   width="369.67047">
  <defs
     id="defs828" />
  <metadata
     id="metadata831">
    <rdf:RDF>
      <cc:Work
         rdf:about="">
        <dc:format>image/svg+xml</dc:format>
        <dc:type
           rdf:resource="http://purl.org/dc/dcmitype/StillImage" />
        <dc:title></dc:title>
      </cc:Work>
    </rdf:RDF>
  </metadata>
  <g
     transform="translate(-66.756391,-94.181408)"
     id="layer1">
    <path
       id="path817"
       d="m 131.4048,147.28002 c -10.4489,-1.98048 -52.467552,-17.87013 -59.062363,-22.33485 -4.58983,-3.10734 -6.461588,-6.34309 -5.203211,-8.99492 1.627806,-3.43035 6.450031,-2.83806 23.784329,2.92128 14.215885,4.72325 25.939105,9.66725 36.380205,15.34251 1.96453,1.06782 4.04394,2.09113 4.62091,2.27402 1.01677,0.32231 1.02898,0.33997 0.39687,0.57435 -1.06447,0.39471 -2.34395,-0.005 -5.28236,-1.64954 -6.60148,-3.69503 -15.93688,-7.48078 -37.967708,-15.39689 -12.646499,-4.54415 -13.65273,-4.87492 -15.478125,-5.08806 -1.755114,-0.20494 -3.16516,0.38613 -3.546713,1.48672 -0.369972,1.06718 0.454062,2.92092 1.95471,4.39729 4.395777,4.32467 32.933776,15.97852 53.545236,21.86587 6.70355,1.91477 9.06467,2.22021 10.4663,1.35395 0.16768,-0.10363 3.53302,-3.7805 7.47855,-8.17084 3.94552,-4.39033 7.5095,-8.3335 7.91995,-8.76261 l 0.74628,-0.78019 0.4363,1.04423 c 0.56365,1.34899 0.39066,3.73393 -0.40498,5.58344 -0.81702,1.89922 -1.54739,2.50635 -3.25447,2.70532 -1.37962,0.16079 -1.46381,0.22079 -3.38683,2.41373 -3.80522,4.33934 -8.02607,8.60347 -8.96325,9.05516 -1.04138,0.50191 -3.04867,0.56393 -5.17963,0.16003 z m -1.4552,-4.96456 c -14.90371,-3.90849 -39.204588,-12.90363 -50.645751,-18.74687 -4.683882,-2.39216 -6.765909,-3.85239 -7.400946,-5.19062 -0.680728,-1.43453 -0.499975,-1.86128 0.829225,-1.95774 l 1.11859,-0.0812 -0.164923,0.82461 c -0.221874,1.10936 0.308443,2.0201 1.617641,2.77806 1.012627,0.58627 18.145069,7.24982 31.627414,12.30127 3.41974,1.28129 9.43239,3.57661 13.36145,5.10071 3.92907,1.52411 8.26854,3.15514 9.64327,3.62453 3.8722,1.32211 3.10804,1.81081 11.95555,-7.64586 4.09718,-4.37927 8.806,-8.68614 9.05547,-8.28248 0.13365,0.21625 -12.79186,14.76861 -15.03528,16.92767 -1.42271,1.36921 -1.94994,1.39998 -5.96171,0.3479 z m -0.92605,-3.22447 c -1.60072,-0.57834 -5.00903,-1.87542 -7.57402,-2.8824 -2.56498,-1.00699 -9.8278,-3.78799 -16.13958,-6.18001 -16.77086,-6.35577 -27.83244,-10.64646 -29.05512,-11.27023 -1.088641,-0.55538 -1.463751,-1.46252 -0.722399,-1.747 0.193368,-0.0742 2.366258,0.59292 4.828645,1.4825 2.462385,0.88958 7.968083,2.86287 12.234889,4.3851 18.075045,6.44846 27.286635,10.29128 35.457775,14.792 1.32647,0.73064 1.97125,0.92317 3.09163,0.92317 1.53849,0 2.63632,-0.32349 3.37909,-0.99568 0.26113,-0.23632 0.89236,-0.57323 1.40272,-0.74868 l 0.92794,-0.31901 -1.39867,1.4947 c -2.42968,2.59653 -2.26904,2.56992 -6.4329,1.06554 z m 3.83239,-3.90285 c -0.8026,-0.2569 -3.50307,-1.56914 -6.00104,-2.91609 -8.29378,-4.47215 -17.94692,-8.65227 -29.581346,-12.80968 -5.743862,-2.0525 -15.003951,-4.99626 -19.428977,-6.17644 -2.877288,-0.76739 -7.039877,-1.0921 -8.569775,-0.66851 -1.550003,0.42915 -0.845442,-0.19433 1.738577,-1.53851 1.200703,-0.6246 4.207155,-2.20443 6.68101,-3.51074 2.473854,-1.30632 9.286562,-4.80983 15.139352,-7.785582 8.837089,-4.493073 10.884639,-5.435564 12.075799,-5.558503 2.97213,-0.30675 8.48217,0.960771 27.81818,6.399255 22.0363,6.19797 30.42395,8.63551 31.00233,9.00961 0.70116,0.45351 0.98435,1.25715 0.75917,2.15435 -0.0927,0.36941 -1.36322,1.89954 -2.82333,3.40029 l -2.65476,2.72863 -1.36775,-1.04792 c -2.70887,-2.07545 -12.70151,-6.57373 -16.71358,-7.52378 -2.28888,-0.542 -5.56575,-0.48798 -6.89011,0.11359 -1.48555,0.6748 -2.50259,1.94996 -2.50259,3.13775 0,1.3333 1.0846,3.03399 2.57403,4.03616 1.46242,0.98399 9.13036,4.74828 12.70565,6.23736 1.34607,0.56062 2.4474,1.09803 2.4474,1.19424 0,0.15212 -5.6764,4.9202 -11.90625,10.00105 -1.09141,0.89011 -2.2225,1.61213 -2.51354,1.60448 -0.29104,-0.008 -1.18585,-0.2241 -1.98845,-0.48101 z m 5.68509,-3.76287 c 3.21332,-2.58915 3.85251,-3.41612 2.91767,-3.77485 -0.24866,-0.0954 -1.41095,0.66794 -3.10885,2.04182 -1.49144,1.20683 -3.0217,2.39603 -3.40057,2.64268 -0.68457,0.44566 -0.74937,0.4185 -10.40101,-4.35968 -8.79221,-4.3527 -9.75117,-4.7691 -10.12421,-4.39606 -0.22664,0.22664 -0.32739,0.5491 -0.22388,0.71658 0.10351,0.16748 4.43361,2.43329 9.62245,5.03513 6.96329,3.4916 9.69216,4.73516 10.41892,4.74796 0.86353,0.0152 1.39246,-0.31123 4.29948,-2.65358 z m -27.16152,-9.03788 c 0.0641,-0.33604 -0.25143,-0.60972 -1.14371,-0.99219 -1.45005,-0.62157 -2.39768,-0.67648 -2.59946,-0.15063 -0.18131,0.47248 0.25268,0.83959 1.57127,1.32912 1.29093,0.47927 2.05757,0.4135 2.1719,-0.1863 z M 91.459858,105.10377 c 7.341676,-3.72209 13.410442,-6.867652 13.486132,-6.990132 0.0757,-0.12248 -0.0479,-0.4082 -0.27461,-0.63494 -0.37327,-0.37327 -1.68464,0.22405 -13.870909,6.318102 -7.402269,3.7017 -13.528551,6.84343 -13.613963,6.98163 -0.236228,0.38222 0.118946,1.09277 0.546235,1.09277 0.208237,0 6.38544,-3.04534 13.727115,-6.76743 z m 62.429232,27.73566 c 0.98003,-2.47143 0.70191,-5.55773 -0.67173,-7.45398 -1.1415,-1.5758 -2.44823,-2.41111 -6.66184,-4.25851 -4.66526,-2.0454 -10.29306,-4.84332 -11.73695,-5.83513 -1.16492,-0.80019 -1.97199,-2.12144 -1.76931,-2.89653 0.22549,-0.86225 1.28406,-1.5864 2.77673,-1.89949 1.22122,-0.25615 1.8594,-0.23055 3.81437,0.15302 2.89374,0.56777 8.61545,2.79377 13.19217,5.13235 2.85929,1.46102 3.7591,2.07501 5.3067,3.62105 2.1024,2.10028 2.64368,3.26968 2.10567,4.54922 -0.35624,0.84725 -6.17724,9.35102 -6.40095,9.35102 -0.0762,0 -0.0558,-0.20836 0.0452,-0.46302 z m -11.5586,-15.82327 c 0.0637,-0.4456 -0.23902,-0.67368 -1.67975,-1.26534 -2.71627,-1.11549 -4.69926,-2.47328 -4.53416,-3.10462 0.0747,-0.28585 -0.0462,-0.70187 -0.26886,-0.92449 -0.3633,-0.36331 -0.45576,-0.35863 -0.90249,0.0457 -1.30889,1.18453 0.15309,2.99731 3.84825,4.77158 2.5713,1.23463 3.41241,1.34811 3.53701,0.47721 z m 17.77758,2.25586 c -0.24889,-0.46506 -0.0658,-0.78587 1.37222,-2.40386 0.91269,-1.02694 1.70424,-1.73279 1.75898,-1.56855 0.086,0.25802 -2.51073,4.50909 -2.75435,4.50909 -0.0493,0 -0.21887,-0.24151 -0.37685,-0.53668 z"
       style="fill:#000000;stroke-width:0.26458332" />
  </g>
</svg>
